<svg width="32" height="32" viewBox="0 0 32 32" fill="none" xmlns="http://www.w3.org/2000/svg">
<path d="M12.2293 21.656L16 17.8853L19.7707 21.656L21.656 19.7707L17.8853 16L21.656 12.2293L19.7707 10.344L16 14.1147L12.2293 10.344L10.344 12.2293L14.1147 16L10.344 19.7707L12.2293 21.656Z" fill="white"/>
<path d="M16 29.3333C23.352 29.3333 29.3333 23.352 29.3333 16C29.3333 8.64799 23.352 2.66666 16 2.66666C8.64796 2.66666 2.66663 8.64799 2.66663 16C2.66663 23.352 8.64796 29.3333 16 29.3333ZM16 5.33332C21.8813 5.33332 26.6666 10.1187 26.6666 16C26.6666 21.8813 21.8813 26.6667 16 26.6667C10.1186 26.6667 5.33329 21.8813 5.33329 16C5.33329 10.1187 10.1186 5.33332 16 5.33332Z" fill="white"/>
</svg>
