<svg width="26" height="25" viewBox="0 0 26 25" fill="none" xmlns="http://www.w3.org/2000/svg">
<path d="M5.45645 2.77901C5.45609 3.51568 5.16831 4.22204 4.65641 4.74268C4.14451 5.26333 3.45043 5.55562 2.72686 5.55525C2.00329 5.55488 1.3095 5.26188 0.798115 4.74072C0.286729 4.21955 -0.000361444 3.51291 3.41521e-07 2.77624C0.000362127 2.03956 0.288146 1.33321 0.800044 0.812565C1.31194 0.29192 2.00602 -0.000367988 2.72959 3.47705e-07C3.45316 0.000368683 4.14695 0.293363 4.65834 0.814529C5.16973 1.3357 5.45682 2.04234 5.45645 2.77901ZM5.5383 7.61208H0.0818471V25H5.5383V7.61208ZM14.1595 7.61208H8.73033V25H14.1049V15.8755C14.1049 10.7925 20.6118 10.3203 20.6118 15.8755V25H26V13.9867C26 5.41776 16.3694 5.73718 14.1049 9.94528L14.1595 7.61208Z" fill="white"/>
</svg>
