<svg width="32" height="22" viewBox="0 0 32 22" fill="none" xmlns="http://www.w3.org/2000/svg">
<path d="M13.1012 15.5L21.1457 10.85L13.1012 6.2V15.5ZM31.0192 3.3635C31.2207 4.092 31.3602 5.0685 31.4532 6.3085C31.5617 7.5485 31.6082 8.618 31.6082 9.548L31.7012 10.85C31.7012 14.2445 31.4532 16.74 31.0192 18.3365C30.6317 19.7315 29.7327 20.6305 28.3377 21.018C27.6092 21.2195 26.2762 21.359 24.2302 21.452C22.2152 21.5605 20.3707 21.607 18.6657 21.607L16.2012 21.7C9.70667 21.7 5.66117 21.452 4.06467 21.018C2.66967 20.6305 1.77067 19.7315 1.38317 18.3365C1.18167 17.608 1.04217 16.6315 0.949172 15.3915C0.840672 14.1515 0.794172 13.082 0.794172 12.152L0.701172 10.85C0.701172 7.4555 0.949172 4.96 1.38317 3.3635C1.77067 1.9685 2.66967 1.0695 4.06467 0.682C4.79317 0.4805 6.12617 0.341 8.17217 0.248C10.1872 0.1395 12.0317 0.0929999 13.7367 0.0929999L16.2012 0C22.6957 0 26.7412 0.248 28.3377 0.682C29.7327 1.0695 30.6317 1.9685 31.0192 3.3635Z" fill="white"/>
</svg>
